<svg xmlns="http://www.w3.org/2000/svg" width="19.5" height="19.5" viewBox="0 0 19.5 19.5">
  <path id="arrow_rigth_icn" d="M5.109-15.891A9.392,9.392,0,0,1,12-18.75a9.392,9.392,0,0,1,6.891,2.859A9.392,9.392,0,0,1,21.75-9a9.392,9.392,0,0,1-2.859,6.891A9.392,9.392,0,0,1,12,.75,9.392,9.392,0,0,1,5.109-2.109,9.392,9.392,0,0,1,2.25-9,9.392,9.392,0,0,1,5.109-15.891Zm12.7,1.078A7.836,7.836,0,0,0,12-17.25a7.951,7.951,0,0,0-5.836,2.414A7.951,7.951,0,0,0,3.75-9,7.951,7.951,0,0,0,6.164-3.164,7.951,7.951,0,0,0,12-.75a7.951,7.951,0,0,0,5.836-2.414A7.951,7.951,0,0,0,20.25-9,7.836,7.836,0,0,0,17.813-14.812Zm-7.125.75,4.5,4.5L15.656-9l-.469.563-4.5,4.5L9.563-5.062,13.547-9,9.563-12.937Z" transform="translate(-2.25 18.75)" fill="#fff"/>
</svg>
